<?xml version="1.0" encoding="UTF-8" standalone="no"?>
<!DOCTYPE svg PUBLIC "-//W3C//DTD SVG 1.1//EN"
 "http://www.w3.org/Graphics/SVG/1.1/DTD/svg11.dtd">
<!-- Generated by graphviz version 10.0.1 (0)
 -->
<!-- Pages: 1 -->
<svg width="366px" height="336px"
 viewBox="0.00 0.00 366.00 335.50" xmlns="http://www.w3.org/2000/svg" xmlns:xlink="http://www.w3.org/1999/xlink">
<g id="graph0" class="graph" transform="scale(1 1) rotate(0) translate(4 331.5)">
<text text-anchor="middle" x="179" y="-7.95" font-family="Times,serif" font-size="14.00">Files and Classes in ChiselAIA</text>
<g id="clust1" class="cluster">
<title>legend</title>
<polygon fill="none" stroke="gray" points="35,-219.75 35,-319.5 327,-319.5 327,-219.75 35,-219.75"/>
<text text-anchor="middle" x="181" y="-302.2" font-family="Times,serif" font-size="14.00">Legend</text>
</g>
<g id="clust2" class="cluster">
<title>params_scala</title>
<polygon fill="none" stroke="black" points="8,-134.5 8,-211.75 350,-211.75 350,-134.5 8,-134.5"/>
<text text-anchor="middle" x="179" y="-194.45" font-family="Times,serif" font-size="14.00">Params.scala</text>
</g>
<g id="clust3" class="cluster">
<title>aplic_scala</title>
<polygon fill="none" stroke="black" points="37,-41.25 37,-118.5 171,-118.5 171,-41.25 37,-41.25"/>
<text text-anchor="middle" x="104" y="-101.2" font-family="Times,serif" font-size="14.00">APLIC.scala</text>
</g>
<g id="clust4" class="cluster">
<title>imsic_scala</title>
<polygon fill="none" stroke="black" points="190,-33.25 190,-126.5 340,-126.5 340,-33.25 190,-33.25"/>
<text text-anchor="middle" x="265" y="-109.2" font-family="Times,serif" font-size="14.00">IMSIC.scala</text>
</g>
<!-- _class0 -->
<g id="node1" class="node">
<title>_class0</title>
<polygon fill="#f8cecc" stroke="#b85450" points="166.62,-278.25 43.38,-278.25 43.38,-235.75 166.62,-235.75 166.62,-278.25"/>
<text text-anchor="middle" x="105" y="-260.95" font-family="Times,serif" font-size="14.00">single&#45;instance</text>
<text text-anchor="middle" x="105" y="-243.7" font-family="Times,serif" font-size="14.00">class</text>
</g>
<!-- aplicparams -->
<g id="node4" class="node">
<title>aplicparams</title>
<polygon fill="#f8cecc" stroke="#b85450" points="169.62,-178.5 16.38,-178.5 16.38,-142.5 169.62,-142.5 169.62,-178.5"/>
<text text-anchor="middle" x="93" y="-155.82" font-family="Times,serif" font-size="14.00">class APLICParams</text>
</g>
<!-- _class0&#45;&gt;aplicparams -->
<g id="edge4" class="edge">
<title>_class0&#45;&gt;aplicparams</title>
<path fill="none" stroke="none" d="M102.4,-235.49C100.7,-222.13 98.46,-204.51 96.6,-189.82"/>
<polygon fill="none" stroke="none" points="100.12,-189.78 95.39,-180.3 93.17,-190.66 100.12,-189.78"/>
</g>
<!-- _class1 -->
<g id="node2" class="node">
<title>_class1</title>
<polygon fill="#f8cecc" stroke="#b85450" points="311,-278.25 193,-278.25 193,-235.75 311,-235.75 311,-278.25"/>
<polygon fill="none" stroke="#b85450" points="315,-282.25 189,-282.25 189,-231.75 315,-231.75 315,-282.25"/>
<polygon fill="none" stroke="#b85450" points="319,-286.25 185,-286.25 185,-227.75 319,-227.75 319,-286.25"/>
<text text-anchor="middle" x="252" y="-260.95" font-family="Times,serif" font-size="14.00">multi&#45;instance</text>
<text text-anchor="middle" x="252" y="-243.7" font-family="Times,serif" font-size="14.00">class</text>
</g>
<!-- imsicparams -->
<g id="node3" class="node">
<title>imsicparams</title>
<polygon fill="#f8cecc" stroke="#b85450" points="342,-178.5 188,-178.5 188,-142.5 342,-142.5 342,-178.5"/>
<text text-anchor="middle" x="265" y="-155.82" font-family="Times,serif" font-size="14.00">class IMSICParams</text>
</g>
<!-- _class1&#45;&gt;imsicparams -->
<g id="edge5" class="edge">
<title>_class1&#45;&gt;imsicparams</title>
<path fill="none" stroke="none" d="M255.94,-227.39C257.57,-215.49 259.47,-201.72 261.1,-189.85"/>
<polygon fill="none" stroke="none" points="264.52,-190.64 262.42,-180.25 257.59,-189.68 264.52,-190.64"/>
</g>
<!-- tlaplic -->
<g id="node5" class="node">
<title>tlaplic</title>
<polygon fill="#f8cecc" stroke="#b85450" points="163,-85.25 45,-85.25 45,-49.25 163,-49.25 163,-85.25"/>
<text text-anchor="middle" x="104" y="-62.58" font-family="Times,serif" font-size="14.00">class TLAPLIC</text>
</g>
<!-- imsicparams&#45;&gt;tlaplic -->
<g id="edge2" class="edge">
<title>imsicparams&#45;&gt;tlaplic</title>
<path fill="none" stroke="#b85450" d="M218.65,-142.16C207.72,-137.52 196.27,-132.2 186,-126.5 168.17,-116.61 149.55,-103.62 134.56,-92.42"/>
<polygon fill="#b85450" stroke="#b85450" points="137.03,-89.9 126.95,-86.64 132.79,-95.47 137.03,-89.9"/>
</g>
<!-- tlimsic -->
<g id="node6" class="node">
<title>tlimsic</title>
<polygon fill="#f8cecc" stroke="#b85450" points="324.38,-85.25 205.62,-85.25 205.62,-49.25 324.38,-49.25 324.38,-85.25"/>
<polygon fill="none" stroke="#b85450" points="328.38,-89.25 201.62,-89.25 201.62,-45.25 328.38,-45.25 328.38,-89.25"/>
<polygon fill="none" stroke="#b85450" points="332.38,-93.25 197.62,-93.25 197.62,-41.25 332.38,-41.25 332.38,-93.25"/>
<text text-anchor="middle" x="265" y="-62.58" font-family="Times,serif" font-size="14.00">class TLIMSIC</text>
</g>
<!-- imsicparams&#45;&gt;tlimsic -->
<g id="edge1" class="edge">
<title>imsicparams&#45;&gt;tlimsic</title>
<path fill="none" stroke="#b85450" d="M265,-142.34C265,-131.82 265,-117.95 265,-105.06"/>
<polygon fill="#b85450" stroke="#b85450" points="268.5,-105.13 265,-95.13 261.5,-105.13 268.5,-105.13"/>
</g>
<!-- aplicparams&#45;&gt;tlaplic -->
<g id="edge3" class="edge">
<title>aplicparams&#45;&gt;tlaplic</title>
<path fill="none" stroke="#b85450" d="M95.07,-142.34C96.61,-129.55 98.75,-111.78 100.55,-96.86"/>
<polygon fill="#b85450" stroke="#b85450" points="104,-97.5 101.72,-87.15 97.05,-96.66 104,-97.5"/>
</g>
</g>
</svg>
